<?xml version="1.0" encoding="utf-8"?>
<!DOCTYPE svg  PUBLIC "-//W3C//DTD SVG 1.1//EN" "http://www.w3.org/Graphics/SVG/1.1/DTD/svg11.dtd">
<svg version="1.1" xmlns="http://www.w3.org/2000/svg" xmlns:xlink="http://www.w3.org/1999/xlink" x="0px" y="0px" width="285.586px" height="284.854px" viewBox="0 0 285.586 284.854" enable-background="new 0 0 285.586 284.854" xml:space="preserve">
  <g class="layer" id="Layer_2">
    <path fill="#594A42" d="M281.761,41.175L125.42,0.168c-1.4-0.368-2.889-0.125-4.101,0.665L2.326,78.453c-1.522,0.993-2.405,2.717-2.32,4.532l6.59,141.328c0.098,2.11,1.481,3.944,3.483,4.619l165.128,55.652c0.535,0.181,1.088,0.269,1.636,0.269c1.275,0,2.527-0.477,3.49-1.371l103.616-96.294c1.044-0.97,1.637-2.33,1.637-3.755v-137.3C285.586,43.803,284.015,41.766,281.761,41.175z"/>
  <g>
    <polygon fill="#A97C50" points="10.509,88.147 16.673,220.337 173.183,273.084 173.183,136.013 116.817,119.428 "/>
    <polygon fill="#754C29" points="275.334,55.229 180.505,134.979 180.505,269.328 275.334,181.199 "/>
    <polygon fill="#C49A6C" points="175.991,129.206 242.605,73.185 271.321,49.035 125.018,10.661 15.624,82.019 "/>
  </g>
  <polygon fill="#C2B59B" points="73.622,102.901 183.435,15.385 223.913,26.002 113.063,114.506 "/>
  <polygon fill="#9B8579" points="73.622,102.901 113.063,114.506 113.063,177.944 101.664,169.156 89.216,171.353 82.136,165.25 73.838,167.251 "/>
</g>
<g id="Layer_2_copy"></g>
</svg>
